<svg width="120" height="27" viewBox="0 0 120 27" xmlns="http://www.w3.org/2000/svg" xmlns:xlink="http://www.w3.org/1999/xlink"><title>sourced_logo copy</title><defs><path d="M21.122 26.809v-9.904h-.088c-.176.235-.401.48-.676.735-.274.255-.602.49-.984.705a6.231 6.231 0 0 1-1.337.544 6.26 6.26 0 0 1-1.734.22c-1 0-1.92-.19-2.763-.573a6.591 6.591 0 0 1-2.174-1.572 7.096 7.096 0 0 1-1.41-2.35 8.328 8.328 0 0 1-.5-2.91A8.68 8.68 0 0 1 9.94 8.78a7.173 7.173 0 0 1 1.382-2.38 6.647 6.647 0 0 1 2.174-1.617c.853-.402 1.817-.603 2.895-.603 1 0 1.935.216 2.807.647a4.8 4.8 0 0 1 2.042 1.88h.059V4.593h3.35V26.81h-3.527zM15.304 7.531c-.51.274-.93.626-1.264 1.058-.333.43-.583.92-.75 1.469a5.492 5.492 0 0 0 0 3.277c.167.538.417 1.023.75 1.454.333.431.754.78 1.264 1.044s1.106.396 1.792.396c.647 0 1.225-.137 1.734-.411.51-.274.946-.627 1.308-1.058.362-.43.637-.92.823-1.47a5.09 5.09 0 0 0 .279-1.645c0-.549-.093-1.092-.28-1.631a4.546 4.546 0 0 0-.822-1.455 4.246 4.246 0 0 0-1.308-1.043c-.51-.265-1.087-.397-1.734-.397-.686 0-1.283.137-1.792.412zm12.99 18.573v-2.469h1.615c.568 0 .926-.186 1.073-.558.147-.373.22-.774.22-1.205v-5.525c0-.568.108-1.053.324-1.455.215-.401.47-.73.764-.984a3.43 3.43 0 0 1 .94-.588c.333-.137.617-.216.852-.235v-.059a3.91 3.91 0 0 1-.852-.19 2.705 2.705 0 0 1-.94-.545c-.294-.254-.549-.597-.764-1.028-.216-.431-.324-.99-.324-1.675V4.239c0-.43-.073-.832-.22-1.205-.147-.372-.505-.558-1.073-.558h-1.616V.007h2.145c.49 0 .96.079 1.411.235.45.157.852.397 1.205.72.353.324.632.725.837 1.205.206.48.309 1.054.309 1.72V9.5c0 .47.069.852.206 1.146.137.294.304.524.5.69.195.167.41.28.646.338.235.06.46.088.676.088v2.587c-.216 0-.441.029-.676.088-.235.059-.45.161-.647.308a1.747 1.747 0 0 0-.5.632c-.136.275-.205.617-.205 1.029v5.818c0 .666-.103 1.24-.309 1.72-.205.48-.484.881-.837 1.205a3.435 3.435 0 0 1-1.205.72c-.45.156-.92.235-1.41.235h-2.146zm-22.394 0c-.49 0-.96-.079-1.411-.235a3.435 3.435 0 0 1-1.205-.72 3.454 3.454 0 0 1-.837-1.205c-.206-.48-.309-1.054-.309-1.72v-5.818c0-.412-.069-.754-.206-1.029a1.747 1.747 0 0 0-.5-.632 1.782 1.782 0 0 0-.66-.308 2.863 2.863 0 0 0-.662-.088v-2.587c.196 0 .417-.029.661-.088.245-.058.466-.171.662-.338.195-.166.362-.396.5-.69.136-.294.205-.676.205-1.146V3.887c0-.666.103-1.24.309-1.72.205-.48.484-.881.837-1.205A3.435 3.435 0 0 1 4.49.242C4.94.086 5.41.007 5.9.007h2.146v2.469H6.429c-.569 0-.926.186-1.073.558-.147.373-.22.774-.22 1.205v5.349c0 .685-.108 1.244-.324 1.675-.215.43-.47.774-.764 1.028a2.705 2.705 0 0 1-.94.544 3.91 3.91 0 0 1-.852.191v.059c.235.02.519.098.852.235.333.137.646.333.94.588.294.255.549.583.764.984.216.402.324.887.324 1.455v5.525c0 .43.073.832.22 1.205.147.372.504.558 1.073.558h1.616v2.469H5.9z" id="a"/></defs><g fill="none" fill-rule="evenodd"><g fill="#3C7DB4"><path d="M9.538 12.055c-.31-.406-.735-.759-1.277-1.06a3.599 3.599 0 0 0-1.77-.449 3.39 3.39 0 0 0-1.538.348c-.464.233-.697.62-.697 1.161 0 .542.257.924.77 1.146.512.223 1.262.45 2.249.682.522.117 1.049.272 1.581.465s1.016.45 1.451.769c.436.32.788.716 1.06 1.19.27.474.406 1.05.406 1.726 0 .852-.16 1.572-.48 2.162a4.053 4.053 0 0 1-1.276 1.437 5.371 5.371 0 0 1-1.857.798 9.646 9.646 0 0 1-2.191.247 8.701 8.701 0 0 1-3.164-.595C1.78 21.686.93 21.12.252 20.384l2.292-2.147c.387.503.89.919 1.51 1.247.618.33 1.305.494 2.06.494.251 0 .508-.03.769-.087.261-.058.503-.15.725-.276.223-.125.402-.295.537-.508.135-.213.203-.474.203-.783 0-.58-.266-.996-.798-1.248s-1.33-.503-2.394-.755a11.475 11.475 0 0 1-1.523-.45 4.96 4.96 0 0 1-1.32-.725 3.353 3.353 0 0 1-.93-1.117c-.232-.445-.348-.997-.348-1.655 0-.773.16-1.44.48-2.002.318-.56.74-1.02 1.261-1.378a5.672 5.672 0 0 1 1.77-.799 7.902 7.902 0 0 1 2.032-.26c1.006 0 1.988.173 2.946.522.957.348 1.716.88 2.278 1.596l-2.264 2.002z"/><path d="M7.59 16.993c.564.267.85.715.85 1.33 0 .326-.073.606-.217.833a1.601 1.601 0 0 1-.57.539c-.228.13-.48.225-.75.285-.267.06-.532.09-.79.09-.766 0-1.474-.17-2.103-.504a4.719 4.719 0 0 1-1.476-1.194L.381 20.388c.655.69 1.481 1.23 2.458 1.608a8.65 8.65 0 0 0 3.13.589c.742 0 1.472-.082 2.17-.244a5.31 5.31 0 0 0 1.826-.785c.517-.357.938-.83 1.248-1.404.31-.574.468-1.287.468-2.118 0-.658-.133-1.224-.394-1.682a3.72 3.72 0 0 0-1.034-1.161 5.716 5.716 0 0 0-1.428-.757 12.697 12.697 0 0 0-1.57-.46c-.99-.234-1.752-.465-2.266-.688-.547-.237-.824-.651-.824-1.23 0-.578.25-.996.747-1.244a3.497 3.497 0 0 1 1.58-.358c.65 0 1.26.156 1.814.462.516.286.934.624 1.244 1.006l2.125-1.88c-.543-.666-1.277-1.17-2.183-1.5a8.504 8.504 0 0 0-2.914-.516 7.84 7.84 0 0 0-2.008.258c-.644.17-1.23.435-1.742.785a4.043 4.043 0 0 0-1.234 1.349c-.31.544-.467 1.202-.467 1.956 0 .64.114 1.183.338 1.612.225.432.529.797.903 1.087.377.293.814.533 1.297.712m2.304 6.983a8.837 8.837 0 0 1-3.197-.6c-1.034-.4-1.904-.98-2.588-1.722l-.062-.067L2.555 18.1l.062.08c.377.49.875.902 1.48 1.223.601.32 1.28.483 2.017.483.243 0 .495-.029.749-.085.252-.056.487-.145.7-.266.208-.118.378-.278.505-.477a1.35 1.35 0 0 0 .189-.734c0-.547-.244-.928-.746-1.165-.525-.248-1.324-.5-2.376-.748a11.632 11.632 0 0 1-1.535-.454 5.073 5.073 0 0 1-1.344-.739 3.46 3.46 0 0 1-.954-1.147c-.238-.456-.359-1.027-.359-1.697 0-.786.166-1.475.491-2.047a4.223 4.223 0 0 1 1.29-1.41 5.789 5.789 0 0 1 1.8-.81 8.031 8.031 0 0 1 2.054-.264c1.012 0 2.014.177 2.977.527.969.353 1.75.9 2.319 1.626l.053.068-2.402 2.125-.06-.078c-.3-.394-.72-.742-1.248-1.035a3.524 3.524 0 0 0-1.726-.438 3.31 3.31 0 0 0-1.497.339c-.435.217-.646.57-.646 1.078 0 .507.234.854.714 1.062.504.22 1.256.447 2.234.677.52.116 1.056.273 1.591.467a5.904 5.904 0 0 1 1.475.782c.443.325.807.735 1.084 1.218.278.487.419 1.083.419 1.773 0 .862-.165 1.604-.49 2.205a4.176 4.176 0 0 1-1.306 1.469 5.486 5.486 0 0 1-1.888.811 9.785 9.785 0 0 1-2.212.25m10.998-7.521c0 .541.082 1.083.247 1.625a4.44 4.44 0 0 0 .74 1.45 3.86 3.86 0 0 0 1.248 1.045c.503.272 1.103.407 1.8.407.696 0 1.295-.135 1.798-.407a3.86 3.86 0 0 0 1.248-1.044c.329-.426.576-.91.74-1.451a5.437 5.437 0 0 0 0-3.236 4.51 4.51 0 0 0-.74-1.437 3.723 3.723 0 0 0-1.248-1.03c-.503-.261-1.102-.392-1.799-.392-.696 0-1.296.131-1.8.392a3.729 3.729 0 0 0-1.247 1.03c-.33.426-.576.905-.74 1.437a5.425 5.425 0 0 0-.247 1.61m-3.54 0c0-1.102.198-2.103.595-3.003.396-.9.933-1.669 1.61-2.307a7.099 7.099 0 0 1 2.409-1.48 8.36 8.36 0 0 1 2.96-.523 8.36 8.36 0 0 1 2.96.523 7.104 7.104 0 0 1 2.409 1.48 7.027 7.027 0 0 1 1.61 2.307c.397.9.595 1.9.595 3.004 0 1.102-.198 2.108-.594 3.018a7.147 7.147 0 0 1-1.611 2.336 7.352 7.352 0 0 1-2.409 1.523 7.977 7.977 0 0 1-2.96.552 7.977 7.977 0 0 1-2.96-.552 7.346 7.346 0 0 1-2.409-1.523 7.133 7.133 0 0 1-1.61-2.336c-.397-.91-.595-1.916-.595-3.018"/><path d="M21.001 10.87c-.678 0-1.27.129-1.757.382a3.64 3.64 0 0 0-1.217 1.004 4.418 4.418 0 0 0-.725 1.408 5.362 5.362 0 0 0-.243 1.583c0 .531.082 1.07.243 1.599.16.529.404 1.007.725 1.421.319.414.73.757 1.218 1.02.487.263 1.078.396 1.756.396.678 0 1.269-.133 1.756-.395a3.822 3.822 0 0 0 1.219-1.02c.32-.415.564-.893.724-1.422a5.507 5.507 0 0 0 .243-1.599 5.37 5.37 0 0 0-.243-1.583 4.439 4.439 0 0 0-.724-1.408 3.649 3.649 0 0 0-1.218-1.004c-.488-.253-1.079-.382-1.757-.382m0 8.997c-.71 0-1.33-.14-1.843-.418a3.975 3.975 0 0 1-1.277-1.07 4.576 4.576 0 0 1-.755-1.48 5.681 5.681 0 0 1-.25-1.652c0-.548.084-1.099.25-1.637.167-.54.42-1.033.755-1.466.336-.434.766-.79 1.279-1.055.513-.267 1.133-.402 1.841-.402s1.328.135 1.842.402a3.83 3.83 0 0 1 1.278 1.055c.334.433.588.926.755 1.466.166.54.25 1.09.25 1.637a5.7 5.7 0 0 1-.25 1.652 4.587 4.587 0 0 1-.755 1.48 3.984 3.984 0 0 1-1.277 1.07c-.514.277-1.134.418-1.843.418m0-11.84a8.306 8.306 0 0 0-2.928.516 7.039 7.039 0 0 0-2.378 1.46 6.955 6.955 0 0 0-1.59 2.278c-.389.883-.586 1.881-.586 2.966 0 1.086.197 2.089.587 2.982.39.894.924 1.67 1.59 2.306a7.287 7.287 0 0 0 2.379 1.505 7.919 7.919 0 0 0 2.926.545 7.919 7.919 0 0 0 2.926-.545 7.293 7.293 0 0 0 2.38-1.505 7.09 7.09 0 0 0 1.59-2.306c.39-.894.587-1.897.587-2.982 0-1.084-.198-2.082-.587-2.966a6.969 6.969 0 0 0-1.59-2.277 7.046 7.046 0 0 0-2.378-1.461A8.306 8.306 0 0 0 21 8.026m0 14.743a8.104 8.104 0 0 1-2.994-.558 7.467 7.467 0 0 1-2.438-1.543 7.26 7.26 0 0 1-1.632-2.366c-.4-.916-.602-1.944-.602-3.055 0-1.11.203-2.133.603-3.04.4-.907.948-1.693 1.631-2.337a7.224 7.224 0 0 1 2.44-1.5A8.488 8.488 0 0 1 21 7.844c1.051 0 2.058.177 2.993.528.935.35 1.755.855 2.439 1.499a7.152 7.152 0 0 1 1.632 2.337c.4.908.602 1.93.602 3.04s-.202 2.138-.602 3.055a7.274 7.274 0 0 1-1.632 2.366 7.476 7.476 0 0 1-2.438 1.543A8.104 8.104 0 0 1 21 22.77m22-.5h-3.31v-2.234h-.058c-.31.696-.847 1.31-1.61 1.843-.765.532-1.67.798-2.714.798-.91 0-1.688-.16-2.336-.48a4.6 4.6 0 0 1-1.596-1.262 5.092 5.092 0 0 1-.914-1.799 7.562 7.562 0 0 1-.29-2.09V8.342h3.482v7.719c0 .406.029.832.087 1.277.058.445.183.846.377 1.204a2.5 2.5 0 0 0 .798.885c.338.233.788.349 1.35.349.541 0 1.02-.111 1.436-.334a3.036 3.036 0 0 0 1.016-.856c.261-.348.46-.75.595-1.205.135-.454.203-.914.203-1.378V8.341h3.482v13.93z"/><path d="M30.264 8.432v8.615c0 .704.097 1.399.287 2.064.188.662.49 1.257.897 1.767.406.51.932.926 1.565 1.237.633.312 1.405.47 2.296.47 1.02 0 1.915-.263 2.66-.782.747-.52 1.279-1.126 1.58-1.804l.024-.055h.21v2.235h3.124V8.432H39.61v7.57c0 .47-.07.943-.207 1.405a3.908 3.908 0 0 1-.61 1.233c-.268.358-.62.654-1.046.882-.427.229-.925.345-1.48.345-.577 0-1.049-.123-1.4-.365a2.597 2.597 0 0 1-.828-.917 3.55 3.55 0 0 1-.387-1.236 9.88 9.88 0 0 1-.088-1.289V8.432h-3.299zM35.31 22.77c-.92 0-1.72-.165-2.377-.489a4.713 4.713 0 0 1-1.627-1.287 5.208 5.208 0 0 1-.93-1.832 7.689 7.689 0 0 1-.295-2.114V8.249h3.667v7.811c0 .401.029.827.086 1.265.056.432.18.827.367 1.173.185.343.443.63.77.853.32.22.757.332 1.297.332.523 0 .992-.109 1.393-.323.402-.215.733-.494.985-.83a3.72 3.72 0 0 0 .58-1.176c.133-.445.2-.9.2-1.352V8.249h3.666v14.113H39.6v-2.048c-.327.612-.839 1.163-1.524 1.64-.777.54-1.708.815-2.766.815zm9.847-14.43h3.338v2.322h.058a5.081 5.081 0 0 1 1.625-1.973c.696-.503 1.509-.755 2.438-.755.135 0 .28.005.435.015.155.01.29.034.406.072v3.193a4.893 4.893 0 0 0-.595-.116 4.156 4.156 0 0 0-.479-.03c-.793 0-1.431.146-1.915.436-.484.29-.86.638-1.132 1.045a3.736 3.736 0 0 0-.551 1.247c-.097.426-.145.765-.145 1.016v7.458h-3.483V8.34z"/><path d="M45.25 22.179h3.298v-7.367c0-.258.05-.607.147-1.036.1-.435.289-.865.565-1.278.277-.416.668-.777 1.16-1.073.496-.298 1.157-.448 1.963-.448a4.219 4.219 0 0 1 .982.12V8.09a1.667 1.667 0 0 0-.32-.05 7.163 7.163 0 0 0-.43-.014c-.904 0-1.706.248-2.383.737a5.015 5.015 0 0 0-1.596 1.939l-.025.052h-.208V8.432h-3.154V22.18zm3.482.183h-3.666V8.25h3.52v2.142a5.155 5.155 0 0 1 1.538-1.777c.71-.512 1.548-.772 2.492-.772.134 0 .282.005.44.015.164.01.308.037.43.077l.063.021v3.376l-.114-.028a4.805 4.805 0 0 0-.584-.114 4.079 4.079 0 0 0-.468-.029c-.773 0-1.401.143-1.868.423-.47.281-.84.624-1.102 1.016a3.658 3.658 0 0 0-.538 1.218c-.095.416-.143.75-.143.995v7.55zM64.166 12.2c-.27-.386-.677-.71-1.218-.972a3.773 3.773 0 0 0-1.655-.392c-.638 0-1.2.13-1.683.392a3.657 3.657 0 0 0-1.204 1.03 4.43 4.43 0 0 0-.711 1.437 5.734 5.734 0 0 0-.232 1.61c0 .542.082 1.08.246 1.611.164.532.411 1.011.74 1.437.33.425.74.769 1.234 1.03.493.261 1.068.392 1.726.392a4.41 4.41 0 0 0 1.626-.32c.54-.212.976-.522 1.306-.928l2.176 2.205c-.58.62-1.32 1.099-2.22 1.437a8.22 8.22 0 0 1-2.917.508 8.59 8.59 0 0 1-2.916-.494 6.907 6.907 0 0 1-2.409-1.45 6.87 6.87 0 0 1-1.625-2.322c-.397-.91-.595-1.945-.595-3.106 0-1.121.198-2.137.595-3.047a6.974 6.974 0 0 1 1.61-2.321 7.193 7.193 0 0 1 2.366-1.48 7.927 7.927 0 0 1 2.887-.523c1.025 0 2.017.194 2.975.58.958.388 1.717.92 2.278 1.597l-2.38 2.09z"/><path d="M61.293 8.026a7.88 7.88 0 0 0-2.854.516 7.139 7.139 0 0 0-2.335 1.462 6.914 6.914 0 0 0-1.59 2.291c-.39.893-.587 1.906-.587 3.01 0 1.144.198 2.176.587 3.069a6.812 6.812 0 0 0 1.604 2.291 6.851 6.851 0 0 0 2.377 1.432 8.537 8.537 0 0 0 2.886.488 8.17 8.17 0 0 0 2.884-.502c.85-.32 1.565-.774 2.124-1.35l-2.043-2.07c-.33.38-.76.674-1.278.878a4.522 4.522 0 0 1-1.658.326c-.67 0-1.266-.136-1.77-.403a3.862 3.862 0 0 1-1.263-1.055 4.59 4.59 0 0 1-.755-1.466 5.532 5.532 0 0 1-.251-1.637c0-.549.08-1.1.236-1.637.156-.54.4-1.033.725-1.466a3.78 3.78 0 0 1 1.235-1.056c.494-.267 1.075-.402 1.726-.402.573 0 1.143.134 1.695.4.514.249.915.558 1.193.92l2.237-1.964c-.544-.63-1.278-1.135-2.184-1.501a7.818 7.818 0 0 0-2.94-.574m.087 14.743a8.72 8.72 0 0 1-2.948-.5 7.03 7.03 0 0 1-2.44-1.47 6.994 6.994 0 0 1-1.647-2.352c-.4-.916-.603-1.973-.603-3.141 0-1.13.203-2.168.603-3.084.4-.917.948-1.708 1.632-2.352a7.317 7.317 0 0 1 2.395-1.499 8.059 8.059 0 0 1 2.92-.528 8 8 0 0 1 3.01.587c.966.39 1.745.937 2.314 1.622l.057.069-2.524 2.216-.059-.084c-.26-.372-.659-.69-1.183-.942a3.697 3.697 0 0 0-1.615-.383c-.62 0-1.172.128-1.64.381a3.584 3.584 0 0 0-1.174 1.005 4.36 4.36 0 0 0-.696 1.406 5.666 5.666 0 0 0-.228 1.586c0 .53.081 1.063.242 1.583.16.52.404.993.725 1.407.319.414.724.752 1.204 1.006.477.253 1.044.38 1.684.38a4.33 4.33 0 0 0 1.591-.312c.524-.206.95-.509 1.268-.901l.065-.08 2.31 2.342-.06.064c-.587.627-1.346 1.118-2.255 1.46a8.345 8.345 0 0 1-2.948.514m16.135-8.856c0-.445-.063-.871-.188-1.277a2.929 2.929 0 0 0-.595-1.074 2.911 2.911 0 0 0-1.03-.74c-.417-.184-.905-.276-1.466-.276-1.045 0-1.93.315-2.656.943-.725.63-1.127 1.437-1.204 2.424h7.14zM81 15.48v.464c0 .155-.01.31-.03.464H70.378a3.444 3.444 0 0 0 1.277 2.453c.367.3.784.536 1.248.71.464.175.948.262 1.45.262.872 0 1.607-.16 2.207-.48a4.117 4.117 0 0 0 1.48-1.32l2.321 1.858c-1.374 1.857-3.366 2.786-5.978 2.786-1.084 0-2.08-.17-2.989-.508a7.042 7.042 0 0 1-2.365-1.437 6.471 6.471 0 0 1-1.567-2.278c-.378-.9-.566-1.92-.566-3.061 0-1.122.188-2.143.566-3.062a6.973 6.973 0 0 1 1.552-2.35 6.944 6.944 0 0 1 2.336-1.51 7.82 7.82 0 0 1 2.917-.537c.967 0 1.862.16 2.684.48a5.8 5.8 0 0 1 2.133 1.421c.6.63 1.07 1.413 1.408 2.35.338.94.508 2.037.508 3.295z"/><path d="M70.478 13.82h6.945c-.008-.4-.07-.789-.183-1.157a2.853 2.853 0 0 0-.576-1.04 2.838 2.838 0 0 0-.999-.717c-.402-.178-.883-.268-1.428-.268-1.017 0-1.89.31-2.595.92-.68.59-1.07 1.35-1.164 2.263zm7.13.184h-7.33l.008-.099c.078-1.006.494-1.843 1.236-2.485.74-.64 1.653-.966 2.715-.966.57 0 1.076.096 1.503.284a3.02 3.02 0 0 1 1.062.763c.277.318.484.69.613 1.107.128.414.193.853.193 1.305v.091zm-3.342-5.978a7.767 7.767 0 0 0-2.883.53 6.889 6.889 0 0 0-2.305 1.49 6.917 6.917 0 0 0-1.532 2.32c-.371.903-.56 1.922-.56 3.027 0 1.124.189 2.142.56 3.026.37.883.89 1.64 1.544 2.246a6.98 6.98 0 0 0 2.335 1.418c.895.333 1.89.502 2.957.502 2.535 0 4.503-.901 5.851-2.678l-2.175-1.74a4.26 4.26 0 0 1-1.456 1.268c-.61.325-1.368.49-2.249.49-.512 0-1.01-.09-1.483-.268a4.505 4.505 0 0 1-1.274-.725 3.55 3.55 0 0 1-1.31-2.516l-.008-.1h10.61c.012-.126.019-.25.019-.372v-.464c0-1.24-.17-2.338-.503-3.263-.332-.922-.8-1.702-1.387-2.318a5.76 5.76 0 0 0-2.1-1.4 7.302 7.302 0 0 0-2.651-.473zm.116 14.743c-1.089 0-2.105-.173-3.021-.514a7.162 7.162 0 0 1-2.395-1.455 6.592 6.592 0 0 1-1.59-2.31c-.38-.907-.573-1.949-.573-3.097 0-1.13.193-2.171.573-3.097.38-.926.91-1.727 1.573-2.381a7.065 7.065 0 0 1 2.367-1.529 7.942 7.942 0 0 1 2.95-.543c.974 0 1.888.163 2.718.485a5.94 5.94 0 0 1 2.166 1.444c.606.635 1.086 1.437 1.427 2.383.34.945.514 2.064.514 3.325v.464c0 .155-.01.315-.03.476l-.01.08H70.478a3.344 3.344 0 0 0 1.234 2.29c.357.29.768.525 1.222.696.452.169.93.255 1.419.255.851 0 1.579-.158 2.163-.468a4.065 4.065 0 0 0 1.447-1.292l.056-.08 2.468 1.973-.053.071c-1.386 1.874-3.422 2.824-6.052 2.824z"/></g><g transform="matrix(1 0 0 -1 82.837 26.862)"><mask id="b" fill="#fff"><use xlink:href="#a"/></mask><g mask="url(#b)" fill="#6094CB"><path d="M-.808 27.727h37.954V-.91H-.808v28.638z"/></g></g></g></svg>